inDegrees=no
num_controls=7
num_derivatives=13
num_iterations=174
num_multipliers=7
num_parameters=0
num_slacks=7
num_states=26
objective=5.938914
objective_accelerations=0.402853
objective_balance=0.017976
objective_effort=0.430426
objective_height=5.042346
objective_ligament=0.045313
solver_duration=1483.907994
status=Solve_Succeeded
success=true
DataType=double
version=3
OpenSimVersion=4.4-2022-07-23-0e9fedc
endheader
time	/jointset/ground_pelvis/pelvis_tilt/value	/jointset/ground_pelvis/pelvis_tx/value	/jointset/ground_pelvis/pelvis_ty/value	/jointset/hip_r/hip_flexion_r/value	/jointset/hip_r/hip_adduction_r/value	/jointset/hip_r/hip_rotation_r/value	/jointset/back/lumbar_extension/value	/jointset/patellofemoral_r/patellar_flexion_r/value	/jointset/knee_r/knee_flexion_r/value	/jointset/knee_r/knee_adduction_r/value	/jointset/knee_r/knee_rotation_r/value	/jointset/ankle_r/ankle_angle_r/value	/jointset/subtalar_r/subtalar_angle_r/value	/jointset/ground_pelvis/pelvis_tilt/speed	/jointset/ground_pelvis/pelvis_tx/speed	/jointset/ground_pelvis/pelvis_ty/speed	/jointset/hip_r/hip_flexion_r/speed	/jointset/hip_r/hip_adduction_r/speed	/jointset/hip_r/hip_rotation_r/speed	/jointset/back/lumbar_extension/speed	/jointset/patellofemoral_r/patellar_flexion_r/speed	/jointset/knee_r/knee_flexion_r/speed	/jointset/knee_r/knee_adduction_r/speed	/jointset/knee_r/knee_rotation_r/speed	/jointset/ankle_r/ankle_angle_r/speed	/jointset/subtalar_r/subtalar_angle_r/speed	/forceset/tau_hip_flexion_r	/forceset/tau_hip_adduction_r	/forceset/tau_hip_rotation_r	/forceset/tau_knee_flexion_r	/forceset/tau_ankle_angle_r	/forceset/tau_subtalar_angle_r	/forceset/tau_lumbar_extension	lambda_cid13_p0	lambda_cid14_p0	lambda_cid14_p1	lambda_cid14_p2	lambda_cid14_p3	lambda_cid14_p4	lambda_cid14_p5	/jointset/ground_pelvis/pelvis_tilt/accel	/jointset/ground_pelvis/pelvis_tx/accel	/jointset/ground_pelvis/pelvis_ty/accel	/jointset/hip_r/hip_flexion_r/accel	/jointset/hip_r/hip_adduction_r/accel	/jointset/hip_r/hip_rotation_r/accel	/jointset/back/lumbar_extension/accel	/jointset/patellofemoral_r/patellar_flexion_r/accel	/jointset/knee_r/knee_flexion_r/accel	/jointset/knee_r/knee_adduction_r/accel	/jointset/knee_r/knee_rotation_r/accel	/jointset/ankle_r/ankle_angle_r/accel	/jointset/subtalar_r/subtalar_angle_r/accel	gamma_cid13_p0	gamma_cid14_p0	gamma_cid14_p1	gamma_cid14_p2	gamma_cid14_p3	gamma_cid14_p4	gamma_cid14_p5
0	-0.006516636909954499	0.0962611806861467	0.9427240420646679	0.1762555651711513	-0.2321525749808844	-0.2616407153372657	-0.0385979564078546	0.0731781648776887	0.07317816487761825	0.1745326453699692	0.1745328341714138	0.0324735960626065	-0.003451662513013023	0	0	0	0	0	0	0	0	0	0	0	0	0	0.2200267758583973	-0.1516290280665223	-0.04444834724354039	-0.4069727482208911	0.4100262295998993	-0.1549799163853092	-0.1159021962246274	-39.07616148009695	81.54851042230926	-43.18315132692015	-3.902039872388347	-36.89271101527024	-680.6447884011596	49.66803030220412	-1.459526419500568	-0.8593991008530483	-0.4985120256563513	7.452846840356667	0.1806712522443667	2.200210781998236	-4.777297582195184	8.209156948006726	8.209156948009422	-2.5789349557838	0.1353470737825248	2.971212766575259	0.8588637285656578	7.87804658651603e-08	4.090999483850005e-08	-5.365452308033675e-07	1.759535025062505e-07	3.051035967367804e-08	9.881524780007822e-09	-2.861146564517667e-07
0.01	-0.006584108077847498	0.0962190390514097	0.9427001190636825	0.1766155943657615	-0.2321425367293843	-0.2615236988220287	-0.03883848054116708	0.07357699087654664	0.07357699087643467	0.1744039863867681	0.1745293126998468	0.03261888305598454	-0.003408500112880113	-0.01343256420487483	-0.008371707485834894	-0.004773584125754214	0.07165361966812861	0.001953396806836649	0.02327992117062492	-0.04778108999694129	0.07942049430267265	0.07942049430267002	-0.02551526814674819	-0.0006799469928634524	0.02894040899927718	0.008549488268251495	0.2155885489087337	-0.1775265397900625	-0.04311179584636441	-0.4015859281440996	0.396925032816275	-0.1276930632125209	-0.1122137731803704	-39.08938848609829	78.37225594996183	-32.02785987298087	-5.521442469485351	-35.75635742060563	-681.0363716016817	71.58675352266047	-1.275866650072648	-0.8175575544136623	-0.4651272189202722	6.968790732980906	0.194484705412309	2.373417622224366	-4.729954206341551	7.756774100346665	7.756774100344762	-2.505408193731316	-0.1659635146167187	2.837919614863313	0.8404784316690825	1.095002625419866e-07	4.755773804495939e-08	-7.393595468263533e-07	1.791742022183433e-07	5.449287751961576e-08	-1.149055434416928e-07	-3.457844819423776e-07
0.02	-0.006784053933657179	0.09609488014541868	0.9426287910988599	0.1776815939975902	-0.2321146023477039	-0.2611775761275119	-0.03954710347403907	0.07475967750393023	0.07475967750393364	0.1740266576322666	0.1745197321732729	0.03305006706901295	-0.003282345418921672	-0.02649493757308235	-0.01640345425080696	-0.009480992767445681	0.1411940874539155	0.003579226034048064	0.04582123584637658	-0.09361975990962784	0.1567721257633064	0.1567721257632878	-0.04973395427792284	-0.001211811137570056	0.05717940392891193	0.01659845876506177	0.211150321958767	-0.2034240515136301	-0.04177524444714016	-0.3961991080679937	0.3838238360324843	-0.1004062100398332	-0.1085253501361849	-39.12854023922031	75.26824258983048	-20.87681535799554	-7.12086748472383	-34.78384494901535	-680.3339911749686	93.29907852850111	-1.385488252165819	-0.79140695668165	-0.4852769288437671	7.030216463888505	0.1151577363192983	2.052489483022812	-4.388813565343474	7.795384379599311	7.795384379599344	-2.319618552669084	0.1649636434147053	2.830929952645516	0.7587601742771025	1.402200592188128e-07	5.420548125141874e-08	-9.421738628493391e-07	1.823949019304361e-07	7.847539536555348e-08	-2.396926116633934e-07	-4.054543074329887e-07
0.03	-0.007112962780448355	0.09589191964195071	0.9425105312156233	0.1794332110073195	-0.2320719382144416	-0.2606112674949862	-0.04070421106334979	0.07670635347843928	0.07670635347831559	0.1734134983173132	0.1745070127986875	0.03376017197833198	-0.003078039578105785	-0.03921089799984909	-0.024148689762549	-0.01417279051964869	0.2087946200326544	0.004912780993395235	0.06731914325172306	-0.1374920410584929	0.2322343227637116	0.2322343227636993	-0.07269696944519717	-0.001329698070012075	0.08471394901770257	0.02419302434775313	0.2054450272520294	-0.1901336871880455	-0.04042443938080838	-0.3893639396230327	0.3762613315221934	-0.1080028480546648	-0.1039649394910607	-39.19269813283397	72.58667221900498	-24.64057423796973	-6.526515536443821	-33.04009591272958	-679.9326173440002	84.73326031253355	-1.203246004446507	-0.7600725575315986	-0.4614506369654587	6.574776205826742	0.1362249877583784	2.180291630867274	-4.339977853338548	7.372297239543169	7.372297239543927	-2.25463109698622	-0.09974310383217791	2.695599743944615	0.7492237690306751	1.519377930760512e-07	5.275167648987635e-08	-1.019774251970944e-06	1.711508460141986e-07	9.224402018149569e-08	-3.329840198067642e-07	-4.217601287331762e-07
0.04	-0.007566750444869695	0.09561270864153987	0.9423452894671509	0.1818507942530022	-0.2320171844091883	-0.2598336097361455	-0.04229074995690259	0.07939778339862601	0.07939778339862358	0.1725767112314981	0.1744931989066618	0.03474179892991463	-0.002799904277709893	-0.05147070108698049	-0.03165355363938097	-0.01887736581466878	0.2743873346497563	0.005997160433334897	0.08809106112010077	-0.1795060207544149	0.3057229149354075	0.3057229149353997	-0.09445950854168154	-0.001430714692801345	0.1114838123844365	0.03136435068107089	0.1997397325455262	-0.1768433228623076	-0.03907363431278706	-0.3825287711781372	0.3686988270120246	-0.115599486069332	-0.09940452884588033	-39.28064019222538	69.97148721295339	-28.41497418185209	-5.905034295363527	-31.44767348564055	-678.5157048225876	75.96161536956292	-1.294256784237472	-0.7433326297007529	-0.4878324374071418	6.62865287156132	0.06532263243789785	1.907291575628495	-4.017153274754097	7.400663413857783	7.400663413857436	-2.079523338511302	0.1683377053458246	2.677993608232992	0.6741123244021996	1.632637318236073e-07	5.113082950218959e-08	-1.094792910640975e-06	1.596085477138718e-07	1.058020492648607e-07	-4.256260328969736e-07	-4.371718468541798e-07
0.05	-0.008141304150377377	0.09525956794504324	0.9421327571813124	0.1849150229986902	-0.2319529379172114	-0.2588534517103279	-0.04428791166820747	0.08281482863222307	0.08281482863225317	0.171528645491425	0.1744800103593964	0.03598727000757709	-0.002452258860502587	-0.06336948591457944	-0.03894110677997663	-0.02364142356662323	0.3381344363923394	0.006821376862906156	0.1078193848165737	-0.2196338433361358	0.3773461012628034	0.3773461012627966	-0.1149586116457403	-0.001225246715099867	0.1374693465741297	0.03810358382200506	0.1936376578378906	-0.1746933883321579	-0.03737409902602835	-0.3758014940869813	0.3581555378499772	-0.1120968602138753	-0.09457242485912917	-39.39097516009636	66.78918733705827	-27.52853526511023	-5.957772241723951	-29.62824620616933	-677.5503644901933	76.50332768743088	-1.127086955664641	-0.7164235572321377	-0.472628149842212	6.199152728025489	0.08622886375486566	1.987480930371499	-3.966725022373807	6.992108919135122	6.992108919135502	-2.00600481464136	-0.0560181903690742	2.537707893315347	0.6645016436160689	1.638677712714245e-07	4.760144980388781e-08	-1.09126791814782e-06	1.607273601468774e-07	1.113514793898505e-07	-4.856402686612389e-07	-4.451340414585412e-07
